<svg xmlns="http://www.w3.org/2000/svg" viewBox="42 90 126 100">
<defs>
    <style>
      .suit-body { fill: none; stroke: #1e293b; stroke-width: 2.5; stroke-linejoin: round; stroke-linecap: round; }
      .suit-accent { fill: none; stroke: #38bdf8; stroke-width: 2; }
      .suit-line { fill: none; stroke: #38bdf8; stroke-width: 2.5; stroke-linecap: round; stroke-linejoin: round; }
      .suit-seam { fill: none; stroke: #94a3b8; stroke-width: 1.5; stroke-dasharray: 3 3; stroke-linecap: round; }
      .skin { fill: none; stroke: #cbd5e1; stroke-width: 2; }
    </style>
  </defs>
<g transform="translate(0, 20)">

    <g transform="translate(105, 120)">
      
      <path d="M -45,-35 L 45,-35 L 42,-15 L -42,-15 Z" class="suit-body" />
      
      <path d="M -42,-15 L -48,35 L -10,35 L -4,0 L 4,0 L 10,35 L 48,35 L 42,-15 Z" class="suit-body" />
      
      <path d="M -45,-35 L -42,-15 L -48,35 L -36,35 L -31,-15 L -35,-35 Z" class="suit-accent" />
      <path d="M 45,-35 L 42,-15 L 48,35 L 36,35 L 31,-15 L 35,-35 Z" class="suit-accent" />
      
      <path d="M -43,-23 L 43,-23" class="suit-line" />
      
      <path d="M -5,-23 L -12,-5 M 5,-23 L 12,-5" stroke="#1e293b" stroke-width="2.5" stroke-linecap="round" />
      <circle cx="-12" cy="-5" r="2.5" class="suit-body" />
      <circle cx="12" cy="-5" r="2.5" class="suit-body" />
    </g>

  </g>
</svg>