<svg xmlns="http://www.w3.org/2000/svg" viewBox="25 105 160 123">
<defs>
    <style>
      .hat-body { fill: none; stroke: #1e293b; stroke-width: 2.5; stroke-linejoin: round; stroke-linecap: round; }
      .hat-accent { fill: none; stroke: #38bdf8; stroke-width: 2; }
      .hat-line { fill: none; stroke: #38bdf8; stroke-width: 2.5; stroke-linecap: round; stroke-linejoin: round; }
      .hat-strap { fill: none; stroke: #64748b; stroke-width: 2.5; stroke-linecap: round; stroke-linejoin: round; }
    </style>
  </defs>
<g transform="translate(0, 20)">
    
    
    
    
    <g transform="translate(105, 125)">
      
      <path d="M -32,-25 L 32,-25 L 40,12 L -40,12 Z" class="hat-body" />
      
      
      <path d="M -36,0 L 36,0 L 40,12 L -40,12 Z" class="hat-accent" />
      
      
      <path d="M -40,12 L -65,30 C -65,30 0,42 65,30 L 40,12 Z" class="hat-body" />
      
      
      <path d="M -52,21 C -20,30 20,30 52,21" class="hat-line" />
      
      
      <path d="M -25,20 C -25,45 -5,55 -5,55" class="hat-strap" />
      <path d="M 25,20 C 25,45 5,55 5,55" class="hat-strap" />
      
      <circle cx="0" cy="55" r="5" fill="none" stroke="#38bdf8" stroke-width="2" />
      <path d="M 0,55 L 0,68" stroke="#64748b" stroke-width="2.5" />
    </g>
    
    
    
    
  </g>
</svg>