<svg xmlns="http://www.w3.org/2000/svg" viewBox="35 75 140 150">
<defs>
    <style>
      .suit-body { fill: none; stroke: #1e293b; stroke-width: 2.5; stroke-linejoin: round; stroke-linecap: round; }
      .suit-accent { fill: none; stroke: #38bdf8; stroke-width: 2; }
      .suit-line { fill: none; stroke: #38bdf8; stroke-width: 2.5; stroke-linecap: round; stroke-linejoin: round; }
      .suit-seam { fill: none; stroke: #94a3b8; stroke-width: 1.5; stroke-dasharray: 3 3; stroke-linecap: round; }
      .skin { fill: none; stroke: #cbd5e1; stroke-width: 2; }
    </style>
  </defs>
<g transform="translate(0, 20)">

    <g transform="translate(105, 120)">

      <path d="M -25,-45 L -55,10 L -45,15 L -18,-25 Z" class="suit-body" />
      <path d="M 25,-45 L 55,10 L 45,15 L 18,-25 Z" class="suit-body" />
      
      <path d="M -25,-45 L 25,-45 L 20,15 L 18,70 L 2,70 L 0,15 L -2,70 L -18,70 L -20,15 Z" class="suit-body" />
      
      <path d="M -14,-45 L -12,-50 L 12,-50 L 14,-45 Z" class="suit-body" />
      
      <path d="M -12,-35 C -15,-10 -10,10 0,12 C 10,10 15,-10 12,-35 Z" class="suit-accent" />
      
      <path d="M -18,70 L -10,15 C -5,0 -5,-20 -14,-45" class="suit-seam" />
      <path d="M 18,70 L 10,15 C 5,0 5,-20 14,-45" class="suit-seam" />
      
      <path d="M -16,35 C -10,35 -8,48 -15,50 Z" fill="none" stroke="#1e293b" stroke-width="2" />
      <path d="M 16,35 C 10,35 8,48 15,50 Z" fill="none" stroke="#1e293b" stroke-width="2" />
    </g>

  </g>
</svg>