<svg xmlns="http://www.w3.org/2000/svg" viewBox="0 0 210 270" width="100%" height="100%">
<defs>
    <style>
      .icon-bg { fill: #f8fafc; stroke: #e2e8f0; stroke-width: 2; rx: 16px; }
      .suit-body { fill: #1e293b; stroke: #0f172a; stroke-width: 4; stroke-linejoin: round; stroke-linecap: round; }
      .suit-accent { fill: #38bdf8; }
      .suit-line { fill: none; stroke: #38bdf8; stroke-width: 2.5; stroke-linecap: round; stroke-linejoin: round; }
      .suit-seam { fill: none; stroke: #64748b; stroke-width: 2; stroke-dasharray: 4 3; stroke-linecap: round; }
      .skin { fill: #e2e8f0; stroke: #cbd5e1; stroke-width: 2; }
      .label-text { font-family: 'Segoe UI', -apple-system, BlinkMacSystemFont, Roboto, sans-serif; font-size: 18px; font-weight: 700; fill: #0f172a; text-anchor: middle; letter-spacing: 0.5px; }
      .sub-text { font-family: 'Segoe UI', -apple-system, BlinkMacSystemFont, Roboto, sans-serif; font-size: 13px; font-weight: 500; fill: #64748b; text-anchor: middle; }
    </style>
  </defs>
<g transform="translate(730, 20)">
    <rect width="210" height="270" class="icon-bg" />
    
    <g transform="translate(105, 120)">
      <!-- Full Steamer Silhouette (Long Sleeves & Long Legs) -->
      <!-- Arms -->
      <path d="M -25,-45 L -55,10 L -45,15 L -18,-25 Z" class="suit-body" />
      <path d="M 25,-45 L 55,10 L 45,15 L 18,-25 Z" class="suit-body" />
      <!-- Main Torso & Long Legs -->
      <path d="M -25,-45 L 25,-45 L 20,15 L 18,70 L 2,70 L 0,15 L -2,70 L -18,70 L -20,15 Z" class="suit-body" />
      <!-- Collar -->
      <path d="M -14,-45 L -12,-50 L 12,-50 L 14,-45 Z" class="suit-body" />
      <!-- Strategic Thermal Chest Panel (Fluid Graphic Accent) -->
      <path d="M -12,-35 C -15,-10 -10,10 0,12 C 10,10 15,-10 12,-35 Z" class="suit-accent" opacity="0.85" />
      <!-- Flatlock / Blindstitched Seam Detail Lines -->
      <path d="M -18,70 L -10,15 C -5,0 -5,-20 -14,-45" class="suit-seam" />
      <path d="M 18,70 L 10,15 C 5,0 5,-20 14,-45" class="suit-seam" />
      <!-- Knee Pad Reinforcements -->
      <path d="M -16,35 C -10,35 -8,48 -15,50 Z" fill="#0f172a" />
      <path d="M 16,35 C 10,35 8,48 15,50 Z" fill="#0f172a" />
    </g>
    
    <text x="105" y="225" class="label-text">FULL WETSUIT</text>
    <text x="105" y="248" class="sub-text">Steamer / Cold Water</text>
  </g>
</svg>