<svg xmlns="http://www.w3.org/2000/svg" viewBox="30 73 150 112">
<defs>
    <style>
      .suit-body { fill: none; stroke: #1e293b; stroke-width: 2.5; stroke-linejoin: round; stroke-linecap: round; }
      .suit-accent { fill: none; stroke: #38bdf8; stroke-width: 2; }
      .suit-line { fill: none; stroke: #38bdf8; stroke-width: 2.5; stroke-linecap: round; stroke-linejoin: round; }
      .suit-seam { fill: none; stroke: #94a3b8; stroke-width: 1.5; stroke-dasharray: 3 3; stroke-linecap: round; }
      .skin { fill: none; stroke: #cbd5e1; stroke-width: 2; }
    </style>
  </defs>
<g transform="translate(0, 20)">

    <g transform="translate(105, 120)">
      
      <p:-body d="M -62,28 L -55,35 L -47,28 Z" class="skin" />
      <p:-body d="M 62,28 L 55,35 L 47,28 Z" class="skin" />
      
      <path d="M -25,-45 L -60,20 L -48,27 L -18,-20 Z" class="suit-body" />
      <path d="M 25,-45 L 60,20 L 48,27 L 18,-20 Z" class="suit-body" />
      
      <path d="M -25,-45 L 25,-45 L 22,-20 L 20,30 L -20,30 L -22,-20 Z" class="suit-body" />
      
      <path d="M -14,-45 L -12,-52 L 12,-52 L 14,-45 Z" class="suit-body" />
      
      <path d="M -14,-45 C -14,-45 -22,-20 -20,30 L -22,30 C -22,-20 -25,-45 -25,-45 Z" class="suit-accent" />
      <path d="M 14,-45 C 14,-45 22,-20 20,30 L 22,30 C 22,-20 25,-45 25,-45 Z" class="suit-accent" />
      
      <path d="M -12,-45 C -4,-30 4,-30 12,-45" class="suit-line" />
    </g>

  </g>
</svg>