<svg xmlns="http://www.w3.org/2000/svg" viewBox="42 75 126 140">
<defs>
    <style>
      .suit-body { fill: none; stroke: #1e293b; stroke-width: 2.5; stroke-linejoin: round; stroke-linecap: round; }
      .suit-accent { fill: none; stroke: #38bdf8; stroke-width: 2; }
      .suit-line { fill: none; stroke: #38bdf8; stroke-width: 2.5; stroke-linecap: round; stroke-linejoin: round; }
      .suit-seam { fill: none; stroke: #94a3b8; stroke-width: 1.5; stroke-dasharray: 3 3; stroke-linecap: round; }
      .skin { fill: none; stroke: #cbd5e1; stroke-width: 2; }
    </style>
  </defs>
<g transform="translate(0, 20)">

    <g transform="translate(105, 120)">
      
      <path d="M -38,-12 L -48,0 L -38,5 Z" class="skin" />
      <path d="M 38,-12 L 48,0 L 38,5 Z" class="skin" />
      <path d="M -20,40 L -20,60 L -2,60 L -2,40 Z" class="skin" />
      <path d="M 20,40 L 20,60 L 2,60 L 2,40 Z" class="skin" />
      
      <path d="M -25,-45 L -42,-15 L -32,-8 L -18,-25 Z" class="suit-body" />
      <path d="M 25,-45 L 42,-15 L 32,-8 L 18,-25 Z" class="suit-body" />
      
      <path d="M -25,-45 L 25,-45 L 20,15 L 22,40 L 2,40 L 0,15 L -2,40 L -22,40 L -20,15 Z" class="suit-body" />
      
      <path d="M -14,-45 L -12,-50 L 12,-50 L 14,-45 Z" class="suit-body" />
      
      <path d="M -20,15 C -15,0 -15,-20 -25,-45 L -21,-45 C -11,-20 -11,0 -16,15 Z" class="suit-accent" />
      <path d="M 20,15 C 15,0 15,-20 25,-45 L 21,-45 C 11,-20 11,0 16,15 Z" class="suit-accent" />
      
      <path d="M 0,-30 L 0,-5" class="suit-line" />
      <circle cx="0" cy="-5" r="3" class="suit-accent" />
    </g>

  </g>
</svg>