<svg xmlns="http://www.w3.org/2000/svg" viewBox="10 90 155 120">
<defs>
    <style>
      .hat-body { fill: none; stroke: #1e293b; stroke-width: 2.5; stroke-linejoin: round; stroke-linecap: round; }
      .hat-accent { fill: none; stroke: #38bdf8; stroke-width: 2; }
      .hat-line { fill: none; stroke: #38bdf8; stroke-width: 2.5; stroke-linecap: round; stroke-linejoin: round; }
      .hat-strap { fill: none; stroke: #64748b; stroke-width: 2.5; stroke-linecap: round; stroke-linejoin: round; }
    </style>
  </defs>
<g transform="translate(0, 20)">
    
    
    
    
    <g transform="translate(105, 125)">
      
      <path d="M -45,10 C -45,-40 45,-40 45,10 Z" class="hat-body" />
      
      
      <path d="M -25,10 C -25,-25 25,-25 25,10 Z" class="hat-accent" />
      
      
      <path d="M -45,8 C -45,8 -80,12 -75,24 C -72,26 -50,16 -40,12" class="hat-body" />
      
      
      <path d="M 0,-28 L 0,10" class="hat-line" />
      <circle cx="0" cy="-28" r="3" fill="none" stroke="#38bdf8" stroke-width="2" />
      
      
      <path d="M -35,10 C -35,32 -10,48 -10,48" class="hat-strap" />
      <path d="M 35,10 C 35,32 10,48 10,48" class="hat-strap" />
      
      <rect x="-12" y="44" width="24" height="6" rx="2" fill="none" stroke="#1e293b" stroke-width="2" />
    </g>
    
    
    
    
  </g>
</svg>